<svg width="20" height="21" viewBox="0 0 20 21" fill="none" xmlns="http://www.w3.org/2000/svg">
<mask id="mask0_6_823" style="mask-type:alpha" maskUnits="userSpaceOnUse" x="0" y="0" width="20" height="21">
<g clip-path="url(#clip0_6_823)">
<path d="M17.3727 12.9695L13.6922 11.3203L13.682 11.3156C13.491 11.2339 13.2825 11.2011 13.0756 11.2202C12.8687 11.2393 12.6698 11.3097 12.4969 11.425C12.4765 11.4384 12.4569 11.453 12.4383 11.4687L10.5367 13.0898C9.33204 12.5047 8.08829 11.2703 7.50313 10.0812L9.12657 8.15078C9.14219 8.13124 9.15704 8.11171 9.1711 8.09062C9.28394 7.9182 9.35239 7.72056 9.37039 7.51529C9.38838 7.31001 9.35534 7.10348 9.27423 6.91406V6.90468L7.62032 3.21796C7.51309 2.97051 7.3287 2.76438 7.09468 2.63034C6.86067 2.49629 6.58958 2.44153 6.32188 2.47421C5.26326 2.61352 4.29155 3.13341 3.58824 3.93679C2.88492 4.74017 2.49809 5.7721 2.50001 6.83984C2.50001 13.043 7.54688 18.0898 13.75 18.0898C14.8177 18.0918 15.8497 17.7049 16.6531 17.0016C17.4564 16.2983 17.9763 15.3266 18.1156 14.268C18.1484 14.0004 18.0937 13.7293 17.9598 13.4953C17.8259 13.2613 17.62 13.0769 17.3727 12.9695ZM13.75 16.8398C11.0987 16.8369 8.55687 15.7824 6.68214 13.9077C4.8074 12.033 3.7529 9.49111 3.75001 6.83984C3.74707 6.07694 4.02192 5.33905 4.52324 4.76398C5.02456 4.18891 5.71806 3.81598 6.47423 3.71484C6.47391 3.71796 6.47391 3.7211 6.47423 3.72421L8.11485 7.39609L6.50001 9.3289C6.48358 9.34773 6.46869 9.36785 6.45548 9.38906C6.33791 9.56946 6.26894 9.77718 6.25525 9.99207C6.24157 10.207 6.28362 10.4218 6.37735 10.6156C7.08516 12.0633 8.54376 13.5109 10.007 14.218C10.2023 14.3108 10.4184 14.3514 10.634 14.3358C10.8497 14.3202 11.0576 14.2489 11.2375 14.1289C11.2576 14.1154 11.2769 14.1008 11.2953 14.0852L13.1945 12.4648L16.8664 14.1094H16.875C16.7751 14.8666 16.4027 15.5615 15.8275 16.0641C15.2524 16.5666 14.5138 16.8424 13.75 16.8398Z" fill="black"/>
</g>
</mask>
<g mask="url(#mask0_6_823)">
<rect y="0.589844" width="20" height="20" fill="#0093D0"/>
</g>
<defs>
<clipPath id="clip0_6_823">
<rect width="20" height="20" fill="white" transform="translate(0 0.589844)"/>
</clipPath>
</defs>
</svg>
