<svg width="32" height="32" viewBox="0 0 32 32" fill="none" xmlns="http://www.w3.org/2000/svg">
<path d="M16 0C12.8355 0 9.74207 0.938384 7.11088 2.69648C4.47969 4.45459 2.42893 6.95345 1.21793 9.87707C0.00693226 12.8007 -0.309921 16.0177 0.307443 19.1215C0.924806 22.2252 2.44865 25.0761 4.68629 27.3137C6.92393 29.5513 9.77487 31.0752 12.8786 31.6925C15.9823 32.3099 19.1994 31.9931 22.123 30.7821C25.0466 29.5711 27.5454 27.5203 29.3035 24.8891C31.0616 22.258 32 19.1645 32 16C32 11.7565 30.3143 7.68688 27.3138 4.68629C24.3131 1.68571 20.2435 0 16 0ZM20.0547 14.4843L19.7895 16.7137C19.778 16.8172 19.7287 16.9127 19.651 16.9819C19.5731 17.0511 19.4726 17.0891 19.3684 17.0884H17.0526V23.6989C17.0532 23.7779 17.0226 23.8539 16.9674 23.9103C16.912 23.9667 16.8368 23.9989 16.7579 24H14.4C14.3607 23.9995 14.322 23.9912 14.2859 23.9756C14.2499 23.9601 14.2172 23.9376 14.1899 23.9095C14.1624 23.8813 14.141 23.848 14.1264 23.8116C14.1119 23.7751 14.1047 23.7361 14.1052 23.6968L14.1179 17.0884H12.3642C12.2525 17.0884 12.1455 17.044 12.0665 16.9651C11.9875 16.8861 11.9432 16.7791 11.9432 16.6673V14.44C11.9432 14.3283 11.9875 14.2212 12.0665 14.1423C12.1455 14.0633 12.2525 14.0189 12.3642 14.0189H14.1052V11.8589C14.1052 9.36 15.5936 8 17.7684 8H19.5516C19.6632 8 19.7703 8.04436 19.8494 8.12332C19.9283 8.20228 19.9726 8.30939 19.9726 8.42105V10.2968C19.9726 10.4085 19.9283 10.5156 19.8494 10.5946C19.7703 10.6735 19.6632 10.7179 19.5516 10.7179H18.459C17.2758 10.7368 17.0526 11.3032 17.0526 12.1495V14.0127H19.6463C19.7051 14.014 19.7628 14.0276 19.816 14.0527C19.8692 14.0776 19.9166 14.1135 19.955 14.1579C19.9935 14.2024 20.0223 14.2543 20.0394 14.3105C20.0566 14.3667 20.0618 14.4259 20.0547 14.4843Z" fill="#164271"/>
</svg>
