<svg width="32" height="32" viewBox="0 0 32 32" fill="none" xmlns="http://www.w3.org/2000/svg">
<path d="M16 0C12.8355 0 9.74207 0.938384 7.11088 2.69648C4.47969 4.45459 2.42893 6.95345 1.21793 9.87707C0.00693226 12.8007 -0.309921 16.0177 0.307443 19.1215C0.924806 22.2252 2.44865 25.0761 4.68629 27.3137C6.92393 29.5513 9.77487 31.0752 12.8786 31.6925C15.9823 32.3099 19.1994 31.9931 22.123 30.7821C25.0466 29.5711 27.5454 27.5203 29.3035 24.8891C31.0616 22.258 32 19.1645 32 16C32 11.7565 30.3143 7.68688 27.3138 4.68629C24.3131 1.68571 20.2435 0 16 0ZM11.9284 23.4589C11.9284 23.6024 11.8714 23.74 11.77 23.8415C11.6685 23.9429 11.5309 24 11.3874 24H9.08843C9.01729 24.0003 8.94681 23.9865 8.88105 23.9593C8.81528 23.9323 8.75552 23.8924 8.70523 23.8421C8.65493 23.7919 8.61508 23.7321 8.58799 23.6663C8.56091 23.6005 8.54709 23.5301 8.54737 23.4589V13.8189C8.54737 13.6755 8.60437 13.5379 8.70585 13.4364C8.80731 13.3349 8.94493 13.2779 9.08843 13.2779H11.3874C11.5309 13.2779 11.6685 13.3349 11.77 13.4364C11.8714 13.5379 11.9284 13.6755 11.9284 13.8189V23.4589ZM10.2442 12.3705C9.81175 12.3722 9.38851 12.2455 9.02808 12.0065C8.66765 11.7675 8.38625 11.4269 8.21951 11.0279C8.05276 10.6288 8.00816 10.1893 8.09135 9.76489C8.17455 9.34051 8.3818 8.95033 8.68687 8.6438C8.99192 8.33725 9.38109 8.12812 9.80508 8.04288C10.2291 7.95764 10.6688 8.00012 11.0686 8.16495C11.4685 8.32977 11.8104 8.60953 12.0512 8.9688C12.2919 9.32807 12.4206 9.75068 12.4211 10.1832C12.4213 10.4701 12.3651 10.7543 12.2555 11.0196C12.146 11.2848 11.9852 11.5259 11.7825 11.729C11.5798 11.9321 11.339 12.0933 11.074 12.2034C10.809 12.3135 10.5249 12.3703 10.2379 12.3705H10.2442ZM23.9536 23.5032C23.9536 23.6349 23.9014 23.7613 23.8082 23.8545C23.715 23.9476 23.5886 24 23.4568 24H20.9831C20.8514 24 20.725 23.9476 20.6319 23.8545C20.5387 23.7613 20.4863 23.6349 20.4863 23.5032V18.9811C20.4863 18.3052 20.6822 16.0337 18.7222 16.0337C17.2022 16.0337 16.8926 17.5957 16.8274 18.2968V23.5137C16.8247 23.6429 16.7716 23.766 16.6796 23.8568C16.5878 23.9476 16.464 23.9989 16.3347 24H13.9474C13.882 24.0003 13.8174 23.9876 13.757 23.9628C13.6966 23.9379 13.6416 23.9013 13.5954 23.8551C13.5492 23.8089 13.5127 23.754 13.4878 23.6936C13.463 23.6332 13.4503 23.5685 13.4506 23.5032V13.7768C13.4503 13.7115 13.4628 13.6465 13.4878 13.586C13.5126 13.5256 13.5491 13.4705 13.5954 13.4241C13.6415 13.3779 13.6963 13.3411 13.7567 13.3159C13.8171 13.2908 13.8819 13.2779 13.9474 13.2779H16.3347C16.401 13.2768 16.4667 13.2889 16.5283 13.3134C16.5898 13.338 16.6458 13.3745 16.693 13.4211C16.7402 13.4675 16.7778 13.5228 16.8034 13.584C16.829 13.6451 16.8422 13.7107 16.8422 13.7768V14.6189C17.4063 13.7768 18.2442 13.1179 20.0274 13.1179C23.9811 13.1179 23.9579 16.8105 23.9579 18.8379L23.9536 23.5032Z" fill="#164271"/>
</svg>
