<svg width="75" height="14" viewBox="0 0 75 14" fill="none" xmlns="http://www.w3.org/2000/svg">
<path d="M0.0100098 0H14.01V14H0.0100098V0ZM15.1767 0H29.1767V14H15.1767V0ZM30.3433 0H44.3433V14H30.3433V0ZM45.51 0H59.51V14H45.51V0ZM60.6767 0H74.6767V14H60.6767V0Z" fill="#00B67A"/>
<path d="M7.01006 9.43522L9.13923 8.89564L10.0288 11.6373L7.01006 9.43522ZM11.9101 5.89147H8.16214L7.01006 2.3623L5.85798 5.89147H2.11006L5.14339 8.07897L3.99131 11.6081L7.02464 9.42064L8.89131 8.07897L11.9101 5.89147ZM22.1767 9.43522L24.3059 8.89564L25.1955 11.6373L22.1767 9.43522ZM27.0767 5.89147H23.3288L22.1767 2.3623L21.0246 5.89147H17.2767L20.3101 8.07897L19.158 11.6081L22.1913 9.42064L24.058 8.07897L27.0767 5.89147ZM37.3434 9.43522L39.4726 8.89564L40.3621 11.6373L37.3434 9.43522ZM42.2434 5.89147H38.4955L37.3434 2.3623L36.1913 5.89147H32.4434L35.4767 8.07897L34.3246 11.6081L37.358 9.42064L39.2246 8.07897L42.2434 5.89147ZM52.5101 9.43522L54.6392 8.89564L55.5288 11.6373L52.5101 9.43522ZM57.4101 5.89147H53.6621L52.5101 2.3623L51.358 5.89147H47.6101L50.6434 8.07897L49.4913 11.6081L52.5246 9.42064L54.3913 8.07897L57.4101 5.89147ZM67.6767 9.43522L69.8059 8.89564L70.6955 11.6373L67.6767 9.43522ZM72.5767 5.89147H68.8288L67.6767 2.3623L66.5246 5.89147H62.7767L65.8101 8.07897L64.658 11.6081L67.6913 9.42064L69.558 8.07897L72.5767 5.89147Z" fill="white"/>
</svg>
